<svg width="500" height="362" viewBox="0 0 500 362" fill="none" xmlns="http://www.w3.org/2000/svg">
<g filter="url(#filter0_i_26_506)">
<path d="M379.419 133.032C347.671 180.181 303.584 209.892 280.518 216.23C316.597 220.756 357.28 164.909 434.425 177.64C429.14 139.004 439.189 94.9591 464.764 77.5291C471.138 73.1857 484.186 71.713 494.605 70.6217C492.62 69.4287 468.943 58.9346 466.969 58.0355L471.058 63.7112C429.514 69.1021 416.259 78.3194 379.419 133.032Z" fill="#EE8333"/>
</g>
<g filter="url(#filter1_i_26_506)">
<path d="M0 82.7539C95.2685 -30.9735 247.313 -3.23152 311.426 24.8554L299.387 40.8233C307.402 47.6771 334.407 69.643 349.547 85.5948C356.365 79.5513 364.197 72.2351 372.489 65.0216C383.64 55.3221 390.954 48.6286 407.096 39.8251C423.238 31.0216 427.641 29.8063 437.238 27.263C451.709 23.4281 467.199 23.0769 492.95 25.0601C490.121 27.3469 468.239 39.5467 466.335 40.5865C467.234 38.6125 469.103 36.6034 470.002 34.6294C445.731 34.5398 436.082 39.1857 417.142 49.1672C402.9 56.6726 391.091 65.5782 380.238 76.1025C371.494 84.5818 361.238 96.0216 355.097 104.807C348.957 113.592 341.881 125.345 334.096 134.022C323.193 146.172 310.956 156.293 298.238 164.603C261.559 188.568 220.887 197.462 196.738 196.522C280.876 182.596 325.303 130.803 335.709 105.511C291.12 53.7423 214.099 17.7114 156.006 21.7618C126.746 50.003 129.991 116.215 135.271 145.79C110.222 97.5073 124.896 47.1581 128.933 24.686C64.3706 37.7073 40.9099 59.9139 20.5685 87.8313C81.5143 250.716 288.382 236.073 370.608 104.244C408.798 51.3965 452.15 43.2028 480.084 44.9899C480.083 44.9408 476 39 476 39C481.887 40.7276 495.663 46.3165 499.611 48.1145C495.804 50.1941 482.715 55.8149 476 58L480.341 52.0434C463.141 54.0074 441.453 56.8466 422 69.5C408.447 78.6693 391.5 94.5 378.75 114.626C329.017 193.13 248.892 232.806 169.248 226.094C98.1649 220.103 29.9603 180.238 0 82.7539Z" fill="url(#paint0_linear_26_506)"/>
</g>
<path d="M190.42 57.4872L213.159 57.4871L219.593 73.3548L247.42 77.4116" stroke="#EE8333" stroke-width="5.40705" stroke-linecap="round"/>
<circle cx="180.859" cy="56.9695" r="8.11058" transform="rotate(-22.0703 180.859 56.9695)" stroke="#EE8333" stroke-width="5.40705"/>
<circle cx="255.934" cy="79.0416" r="8.11058" transform="rotate(-22.0703 255.934 79.0416)" stroke="#EE8333" stroke-width="5.40705"/>
<path d="M184.42 102.912L207.847 100.969L215.928 116.065L229.725 105.822L244.92 113.412" stroke="#EE8333" stroke-width="5.40705" stroke-linecap="round"/>
<circle cx="175.674" cy="103.881" r="8.11058" transform="rotate(-28.1599 175.674 103.881)" stroke="#EE8333" stroke-width="5.40705"/>
<circle cx="252.667" cy="117.865" r="8.11058" transform="rotate(-28.1599 252.667 117.865)" stroke="#EE8333" stroke-width="5.40705"/>
<path d="M179.92 153.412L202.548 159.715L213.395 146.467L240.42 150.636" stroke="#EE8333" stroke-width="5.40705" stroke-linecap="round"/>
<circle cx="10.8141" cy="10.8141" r="8.11058" transform="matrix(0.773717 0.633532 0.633532 -0.773717 156.327 152.152)" stroke="#EE8333" stroke-width="5.40705"/>
<circle cx="10.8141" cy="10.8141" r="8.11058" transform="matrix(0.773717 0.633532 0.633532 -0.773717 234.571 153.323)" stroke="#EE8333" stroke-width="5.40705"/>
<circle cx="73.9558" cy="87.8346" r="13.5805" transform="rotate(-2.07916 73.9558 87.8346)" stroke="#357BC3" stroke-width="7.7603"/>
<path d="M414.715 336.472V323.086H471.753C475.012 323.086 476.642 321.262 476.642 317.615C476.642 314.045 475.012 312.26 471.753 312.26H434.853C427.946 312.26 422.708 310.708 419.138 307.604C415.568 304.422 413.783 299.882 413.783 293.985C413.783 288.009 415.568 283.431 419.138 280.249C422.785 276.99 428.023 275.36 434.853 275.36H487.933V288.746H435.667C432.33 288.746 430.662 290.376 430.662 293.635C430.662 295.265 431.128 296.545 432.059 297.477C432.99 298.408 434.193 298.874 435.667 298.874H474.779C480.832 298.874 485.45 300.464 488.631 303.646C491.891 306.75 493.52 311.29 493.52 317.265C493.52 323.319 491.891 328.052 488.631 331.467C485.372 334.804 480.755 336.472 474.779 336.472H414.715Z" fill="#082E5D"/>
<path d="M356.922 335.725C350.093 335.725 345.088 334.018 341.906 330.603C338.802 327.189 337.25 322.766 337.25 317.333V275.777H354.129V315.355C354.129 320.011 356.457 322.339 361.113 322.339H385.325C389.981 322.339 392.309 320.011 392.309 315.355V275.777H409.188V317.333C409.188 322.766 407.597 327.189 404.415 330.603C401.311 334.018 396.345 335.725 389.516 335.725H356.922Z" fill="#082E5D"/>
<path d="M306.778 335.725C300.027 335.725 295.06 334.057 291.879 330.72C288.697 327.306 287.106 322.843 287.106 317.334V289.164H269.762V275.777H287.106V257.385H303.985V275.777H337.262V289.164H303.985V315.238C303.985 319.972 306.313 322.339 310.969 322.339H332.155V335.725H306.778Z" fill="#082E5D"/>
<path d="M189.762 361.132V275.385H232.831C243.23 275.385 251.34 277.946 257.16 283.068C262.98 288.19 265.89 295.601 265.89 305.301C265.89 315.079 262.98 322.529 257.16 327.651C251.34 332.773 243.23 335.334 232.831 335.334H206.64V361.132H189.762ZM232.831 288.772H206.64V321.947H232.831C237.876 321.947 241.717 320.589 244.355 317.873C247.072 315.079 248.43 310.889 248.43 305.301C248.43 299.791 247.072 295.678 244.355 292.962C241.717 290.169 237.876 288.772 232.831 288.772Z" fill="#082E5D"/>
<path d="M134.821 336.333C124.422 336.333 116.312 333.772 110.492 328.65C104.672 323.451 101.762 315.846 101.762 305.835C101.762 295.746 104.672 288.141 110.492 283.019C116.312 277.82 124.422 275.22 134.821 275.22H163.922C170.751 275.22 175.95 276.85 179.52 280.109C183.167 283.291 184.991 287.87 184.991 293.845C184.991 306.029 177.968 312.121 163.922 312.121H119.921C121.551 319.338 126.517 322.946 134.821 322.946H189.762V336.333H134.821ZM134.821 288.607C126.828 288.607 121.9 291.983 120.037 298.734H163.107C164.659 298.734 165.862 298.268 166.715 297.337C167.647 296.406 168.112 295.126 168.112 293.496C168.112 290.237 166.444 288.607 163.107 288.607H134.821Z" fill="#082E5D"/>
<path d="M6 335.751V252.522H24.8575L77.938 312.354V252.522H96.5627V335.751H71.5745L24.6247 281.429V335.751H6Z" fill="#082E5D"/>
<defs>
<filter id="filter0_i_26_506" x="280.518" y="58.0355" width="214.087" height="164.276" filterUnits="userSpaceOnUse" color-interpolation-filters="sRGB">
<feFlood flood-opacity="0" result="BackgroundImageFix"/>
<feBlend mode="normal" in="SourceGraphic" in2="BackgroundImageFix" result="shape"/>
<feColorMatrix in="SourceAlpha" type="matrix" values="0 0 0 0 0 0 0 0 0 0 0 0 0 0 0 0 0 0 127 0" result="hardAlpha"/>
<feOffset dy="5.82022"/>
<feGaussianBlur stdDeviation="3.88015"/>
<feComposite in2="hardAlpha" operator="arithmetic" k2="-1" k3="1"/>
<feColorMatrix type="matrix" values="0 0 0 0 0 0 0 0 0 0 0 0 0 0 0 0 0 0 0.25 0"/>
<feBlend mode="normal" in2="shape" result="effect1_innerShadow_26_506"/>
</filter>
<filter id="filter1_i_26_506" x="0" y="0" width="499.611" height="232.645" filterUnits="userSpaceOnUse" color-interpolation-filters="sRGB">
<feFlood flood-opacity="0" result="BackgroundImageFix"/>
<feBlend mode="normal" in="SourceGraphic" in2="BackgroundImageFix" result="shape"/>
<feColorMatrix in="SourceAlpha" type="matrix" values="0 0 0 0 0 0 0 0 0 0 0 0 0 0 0 0 0 0 127 0" result="hardAlpha"/>
<feOffset dy="5.82022"/>
<feGaussianBlur stdDeviation="3.88015"/>
<feComposite in2="hardAlpha" operator="arithmetic" k2="-1" k3="1"/>
<feColorMatrix type="matrix" values="0 0 0 0 0 0 0 0 0 0 0 0 0 0 0 0 0 0 0.25 0"/>
<feBlend mode="normal" in2="shape" result="effect1_innerShadow_26_506"/>
</filter>
<linearGradient id="paint0_linear_26_506" x1="247.343" y1="-2.39855" x2="256.193" y2="241.38" gradientUnits="userSpaceOnUse">
<stop stop-color="#357BC3"/>
<stop offset="1" stop-color="#082E5D"/>
</linearGradient>
</defs>
</svg>
