<svg width="573" height="128" viewBox="0 0 573 128" fill="none" xmlns="http://www.w3.org/2000/svg">
<path d="M480.214 98.6366V82.9083H547.23C551.059 82.9083 552.974 80.7656 552.974 76.4802C552.974 72.286 551.059 70.1889 547.23 70.1889H503.874C495.76 70.1889 489.605 68.3653 485.411 64.7182C481.217 60.9799 479.12 55.6459 479.12 48.7164C479.12 41.6956 481.217 36.3161 485.411 32.5778C489.696 28.7482 495.851 26.8335 503.874 26.8335H566.241V42.5618H504.832C500.911 42.5618 498.951 44.4766 498.951 48.3061C498.951 50.2208 499.498 51.7253 500.592 52.8194C501.686 53.9135 503.099 54.4606 504.832 54.4606H550.786C557.898 54.4606 563.323 56.3298 567.061 60.0681C570.891 63.7152 572.805 69.0492 572.805 76.0699C572.805 83.1819 570.891 88.7438 567.061 92.7556C563.232 96.6763 557.807 98.6366 550.786 98.6366H480.214Z" fill="#082E5D"/>
<path d="M412.312 97.7591C404.288 97.7591 398.407 95.7531 394.668 91.7413C391.021 87.7294 389.198 82.5322 389.198 76.1497V27.3236H409.029V73.8247C409.029 79.2954 411.764 82.0308 417.235 82.0308H445.683C451.154 82.0308 453.889 79.2954 453.889 73.8247V27.3236H473.72V76.1497C473.72 82.5322 471.851 87.7294 468.113 91.7413C464.466 95.7531 458.63 97.7591 450.607 97.7591H412.312Z" fill="#082E5D"/>
<path d="M353.396 97.7593C345.463 97.7593 339.628 95.7989 335.889 91.8782C332.151 87.8664 330.282 82.6236 330.282 76.1499V43.0521H309.903V27.3238H330.282V5.71448H350.113V27.3238H389.212V43.0521H350.113V73.6881C350.113 79.25 352.848 82.031 358.319 82.031H383.211V97.7593H353.396Z" fill="#082E5D"/>
<path d="M215.908 127.611V26.8633H266.512C278.73 26.8633 288.258 29.8722 295.097 35.89C301.935 41.9078 305.355 50.6153 305.355 62.0126C305.355 73.5011 301.935 82.2543 295.097 88.2721C288.258 94.2898 278.73 97.2987 266.512 97.2987H235.74V127.611H215.908ZM266.512 42.5916H235.74V81.5704H266.512C272.439 81.5704 276.952 79.9748 280.052 76.7836C283.244 73.5011 284.839 68.5775 284.839 62.0126C284.839 55.539 283.244 50.7065 280.052 47.5152C276.952 44.2328 272.439 42.5916 266.512 42.5916Z" fill="#082E5D"/>
<path d="M151.356 98.4727C139.138 98.4727 129.61 95.4638 122.772 89.446C115.933 83.337 112.514 74.4016 112.514 62.6395C112.514 50.7863 115.933 41.8508 122.772 35.833C129.61 29.724 139.138 26.6696 151.356 26.6696H185.548C193.572 26.6696 199.681 28.5843 203.875 32.4138C208.16 36.1521 210.303 41.5317 210.303 48.5524C210.303 62.8675 202.051 70.025 185.548 70.025H133.85C135.764 78.5046 141.6 82.7444 151.356 82.7444H215.908V98.4727H151.356ZM151.356 42.3979C141.965 42.3979 136.175 46.3641 133.986 54.2967H184.591C186.414 54.2967 187.827 53.7496 188.83 52.6555C189.925 51.5613 190.472 50.0569 190.472 48.1421C190.472 44.3126 188.511 42.3979 184.591 42.3979H151.356Z" fill="#082E5D"/>
<path d="M0 97.789V0H22.1564L84.5225 70.2987V0H106.405V97.789H77.0459L21.8829 33.9641V97.789H0Z" fill="#082E5D"/>
</svg>
